<svg width="50" height="50" viewBox="0 0 50 50" fill="none" xmlns="http://www.w3.org/2000/svg">
<path d="M25.2499 26.6249C25.1041 26.604 24.9166 26.604 24.7499 26.6249C21.0832 26.4999 18.1665 23.4999 18.1665 19.8123C18.1665 16.0415 21.2082 12.979 24.9999 12.979C28.7707 12.979 31.8332 16.0415 31.8332 19.8123C31.8124 23.4999 28.9166 26.4999 25.2499 26.6249Z" stroke="#292D32" stroke-width="3" stroke-linecap="round" stroke-linejoin="round"/>
<path d="M39.0416 40.3752C35.3332 43.7711 30.4166 45.8336 24.9999 45.8336C19.5833 45.8336 14.6666 43.7711 10.9583 40.3752C11.1666 38.4169 12.4166 36.5002 14.6458 35.0002C20.3541 31.2086 29.6874 31.2086 35.3541 35.0002C37.5832 36.5002 38.8332 38.4169 39.0416 40.3752Z" stroke="#292D32" stroke-width="3" stroke-linecap="round" stroke-linejoin="round"/>
<path d="M25 45.8334C36.5058 45.8334 45.8333 36.5059 45.8333 25.0001C45.8333 13.4941 36.5058 4.16675 25 4.16675C13.494 4.16675 4.16663 13.4941 4.16663 25.0001C4.16663 36.5059 13.494 45.8334 25 45.8334Z" stroke="#292D32" stroke-width="3" stroke-linecap="round" stroke-linejoin="round"/>
</svg>
